<svg width="52" height="52" fill="none" xmlns="http://www.w3.org/2000/svg"><g clip-path="url(#prefix__clip0_1662_5188)"><circle cx="26" cy="26" r="25.5" fill="#fff" stroke="#DBD9D6"/><path d="M34.913 17.767c-1.938 0-4.05.972-6.283 2.888-1.06.908-1.974 1.88-2.66 2.658l.006.006v-.006s1.083 1.156 2.28 2.394c.645-.749 1.572-1.769 2.637-2.688 1.986-1.704 3.28-2.063 4.02-2.063 2.787 0 5.05 2.163 5.05 4.821 0 2.641-2.269 4.804-5.05 4.822a2.57 2.57 0 01-.493-.059c.812.342 1.685.59 2.516.59 5.103 0 6.102-3.26 6.169-3.496.15-.595.228-1.22.228-1.863 0-4.409-3.78-8.004-8.42-8.004z" fill="url(#prefix__paint0_linear_1662_5188)"/><path d="M17.087 33.8c1.938 0 4.05-.973 6.283-2.889 1.06-.908 1.974-1.88 2.66-2.658l-.006-.006v.006s-1.083-1.155-2.28-2.393c-.645.748-1.572 1.768-2.637 2.688-1.986 1.703-3.28 2.063-4.02 2.063-2.787-.006-5.05-2.17-5.05-4.828 0-2.64 2.27-4.804 5.05-4.822.126 0 .289.018.493.06-.812-.343-1.685-.59-2.516-.59-5.103 0-6.096 3.26-6.169 3.49a7.633 7.633 0 00-.228 1.862c0 4.42 3.78 8.017 8.42 8.017z" fill="url(#prefix__paint1_linear_1662_5188)"/><path d="M36.925 31.059c-2.613-.065-5.327-2.08-5.88-2.582-1.433-1.297-4.737-4.804-4.996-5.081-2.42-2.659-5.7-5.63-8.962-5.63h-.012c-3.96.018-7.288 2.647-8.18 6.155.067-.23 1.373-3.555 6.164-3.437 2.612.065 5.338 2.11 5.898 2.611 1.433 1.297 4.737 4.804 4.996 5.081 2.42 2.653 5.7 5.624 8.961 5.624h.012c3.96-.018 7.295-2.647 8.18-6.154-.073.23-1.385 3.525-6.181 3.413z" fill="#29ABE2"/></g><defs><linearGradient id="prefix__paint0_linear_1662_5188" x1="30.53" y1="18.824" x2="41.732" y2="30.667" gradientUnits="userSpaceOnUse"><stop offset=".21" stop-color="#F15A24"/><stop offset=".684" stop-color="#FBB03B"/></linearGradient><linearGradient id="prefix__paint1_linear_1662_5188" x1="21.47" y1="32.742" x2="10.268" y2="20.899" gradientUnits="userSpaceOnUse"><stop offset=".21" stop-color="#ED1E79"/><stop offset=".893" stop-color="#522785"/></linearGradient><clipPath id="prefix__clip0_1662_5188"><path fill="#fff" d="M0 0h52v52H0z"/></clipPath></defs></svg>