<svg width="146" height="146" fill="none" xmlns="http://www.w3.org/2000/svg"><rect width="146" height="146" rx="73" fill="#3B00B9"/><path fill-rule="evenodd" clip-rule="evenodd" d="M16.384 77.205c2.05 28.001 24.41 50.361 52.41 52.411v6.323c-31.485-2.072-56.661-27.248-58.733-58.734h6.323z" fill="url(#prefix__paint0_linear_110_572)"/><path fill-rule="evenodd" clip-rule="evenodd" d="M68.765 16.353c-28.001 2.05-50.361 24.41-52.412 52.412H10.03c2.073-31.487 27.248-56.662 58.735-58.735v6.323z" fill="#29ABE2"/><path fill-rule="evenodd" clip-rule="evenodd" d="M129.616 68.734c-2.05-28-24.41-50.36-52.41-52.41V10c31.485 2.072 56.661 27.248 58.733 58.734h-6.323z" fill="url(#prefix__paint1_linear_110_572)"/><path fill-rule="evenodd" clip-rule="evenodd" d="M77.235 129.586c28.001-2.05 50.361-24.41 52.412-52.411h6.323c-2.073 31.486-27.248 56.662-58.735 58.734v-6.323z" fill="#29ABE2"/><path d="M99.822 64.725c1.192-7.971-4.877-12.256-13.177-15.115l2.693-10.797-6.573-1.638-2.621 10.513c-1.729-.43-3.503-.837-5.267-1.24l2.64-10.581-6.57-1.639-2.694 10.794a219.01 219.01 0 01-4.197-.986l.008-.034-9.065-2.263-1.75 7.02s4.878 1.117 4.775 1.186c2.662.665 3.143 2.426 3.063 3.823L53.71 83.347c-.325.808-1.15 2.021-3.012 1.56.066.096-4.778-1.191-4.778-1.191l-3.263 7.523 8.554 2.132c1.592.399 3.15.816 4.686 1.21l-2.72 10.92 6.566 1.638 2.694-10.805c1.793.487 3.534.936 5.238 1.36l-2.685 10.754 6.573 1.638 2.72-10.9c11.21 2.12 19.638 1.265 23.185-8.872 2.859-8.162-.142-12.87-6.04-15.94 4.296-.99 7.53-3.815 8.394-9.65zM84.803 85.782c-2.031 8.162-15.775 3.75-20.23 2.643l3.61-14.468c4.455 1.112 18.743 3.313 16.62 11.825zm2.033-21.175c-1.853 7.424-13.292 3.652-17.002 2.727l3.272-13.122c3.71.924 15.66 2.65 13.73 10.395z" fill="#fff"/><defs><linearGradient id="prefix__paint0_linear_110_572" x1="53.474" y1="122.79" x2="14.036" y2="89.579" gradientUnits="userSpaceOnUse"><stop offset=".21" stop-color="#ED1E79"/><stop offset="1" stop-color="#522785"/></linearGradient><linearGradient id="prefix__paint1_linear_110_572" x1="120.65" y1="55.602" x2="81.213" y2="22.391" gradientUnits="userSpaceOnUse"><stop offset=".21" stop-color="#F15A24"/><stop offset=".684" stop-color="#FBB03B"/></linearGradient></defs></svg>