<svg width="146" height="146" fill="none" xmlns="http://www.w3.org/2000/svg"><rect width="146" height="146" rx="73" fill="#3B00B9"/><path fill-rule="evenodd" clip-rule="evenodd" d="M16.384 77.205c2.05 28.001 24.41 50.361 52.41 52.411v6.324c-31.485-2.073-56.661-27.249-58.733-58.735h6.323z" fill="url(#prefix__paint0_linear_110_586)"/><path fill-rule="evenodd" clip-rule="evenodd" d="M68.765 16.353c-28.001 2.05-50.361 24.41-52.412 52.412H10.03c2.073-31.487 27.248-56.662 58.735-58.735v6.323z" fill="#29ABE2"/><path fill-rule="evenodd" clip-rule="evenodd" d="M129.616 68.734c-2.05-28-24.41-50.36-52.41-52.41V10c31.485 2.072 56.661 27.248 58.733 58.734h-6.323z" fill="url(#prefix__paint1_linear_110_586)"/><path fill-rule="evenodd" clip-rule="evenodd" d="M77.235 129.586c28.001-2.05 50.361-24.41 52.412-52.411h6.323c-2.073 31.486-27.248 56.662-58.735 58.734v-6.323z" fill="#29ABE2"/><path d="M73.19 31v30.682L99.123 73.27 73.19 31z" fill="#fff" fill-opacity=".6"/><path d="M73.19 31L47.254 73.27 73.19 61.682V31z" fill="#fff"/><path d="M73.19 93.152V114l25.95-35.902-25.95 15.054z" fill="#fff" fill-opacity=".6"/><path d="M73.19 114V93.149l-25.936-15.05L73.19 114z" fill="#fff"/><path d="M73.19 88.327L99.123 73.27 73.19 61.689v26.638z" fill="#fff" fill-opacity=".2"/><path d="M47.254 73.27L73.19 88.327V61.689l-25.936 11.58z" fill="#fff" fill-opacity=".6"/><defs><linearGradient id="prefix__paint0_linear_110_586" x1="53.474" y1="122.79" x2="14.036" y2="89.579" gradientUnits="userSpaceOnUse"><stop offset=".21" stop-color="#ED1E79"/><stop offset="1" stop-color="#522785"/></linearGradient><linearGradient id="prefix__paint1_linear_110_586" x1="120.65" y1="55.602" x2="81.213" y2="22.391" gradientUnits="userSpaceOnUse"><stop offset=".21" stop-color="#F15A24"/><stop offset=".684" stop-color="#FBB03B"/></linearGradient></defs></svg>