<svg width="360" height="360" fill="none" xmlns="http://www.w3.org/2000/svg"><g clip-path="url(#prefix__clip0_979_55)"><path d="M180 0c99.4 0 180 80.6 180 180s-80.6 180-180 180S0 279.4 0 180 80.6 0 180 0z" fill="#3B00B9"/><path fill-rule="evenodd" clip-rule="evenodd" d="M40.4 190.4c5 69 60.2 124.2 129.2 129.2v15.6C92 330 30 268 24.8 190.4h15.6z" fill="url(#prefix__paint0_linear_979_55)"/><path fill-rule="evenodd" clip-rule="evenodd" d="M169.6 40.4c-69 5-124.2 60.2-129.2 129.2H24.8C29.8 92 92 29.8 169.6 24.8v15.6z" fill="#29ABE2"/><path fill-rule="evenodd" clip-rule="evenodd" d="M319.6 169.4c-5-69-60.2-124.2-129.2-129.2V24.6c77.6 5.2 139.8 67.2 144.8 144.8h-15.6z" fill="url(#prefix__paint1_linear_979_55)"/><path fill-rule="evenodd" clip-rule="evenodd" d="M190.4 319.6c69-5 124.2-60.2 129.2-129.2h15.6C330.2 268 268 330 190.4 335.2v-15.6z" fill="#29ABE2"/><path fill-rule="evenodd" clip-rule="evenodd" d="M213.197 75.834c-3.297-1.053-5.993.904-5.993 4.365v8.513c0 2.321 1.749 4.963 3.928 5.762 34.996 12.818 60.039 46.456 60.039 85.838 0 39.382-25.043 73.018-60.039 85.837-2.39.875-3.928 3.216-3.928 5.762v8.512c0 3.462 2.696 5.419 5.993 4.366 44.225-14.131 76.25-55.564 76.25-104.477 0-48.914-32.025-90.347-76.25-104.478zM152.374 80.2c0-3.462-2.696-5.42-5.993-4.366-44.227 14.13-76.252 55.564-76.252 104.478 0 48.914 32.025 90.346 76.252 104.477 3.297 1.053 5.993-.904 5.993-4.366v-8.512c0-2.322-1.75-4.964-3.929-5.762-34.996-12.819-60.04-46.456-60.04-85.837 0-39.382 25.044-73.02 60.04-85.838 2.179-.799 3.929-3.44 3.929-5.762V80.2z" fill="#fff"/><path d="M217.18 208.846l-8.365-3.737c-1.841-.823-4.013-.054-4.905 1.756-3.947 8.012-10.508 13.118-19.175 13.118-7.847 0-14.14-3.843-18.964-11.608-1.885-3.005-3.384-6.358-4.524-10.032h22.46a3.776 3.776 0 003.368-2.073l5.358-7.233c1.268-2.51-.556-5.474-3.366-5.474h-30.348a84.358 84.358 0 01-.141-4.778c-.017-1.62.029-3.208.113-4.772h25.016a3.775 3.775 0 003.368-2.072l5.358-7.233c1.269-2.51-.556-5.474-3.366-5.474h-27.848c4.073-13.28 12.576-21.98 23.516-21.809 8.337 0 14.808 4.564 18.96 12.039.93 1.675 3.024 2.317 4.776 1.544l8.408-3.712c2.011-.888 2.867-3.32 1.802-5.244-7.761-14.016-19.076-21.057-33.946-21.057-13.569 0-24.441 5.395-32.696 16.103-4.825 6.307-8.184 13.707-10.178 22.136h-12.212a3.773 3.773 0 00-3.368 2.072l-5.36 7.233c-1.267 2.51.557 5.474 3.368 5.474h15.554c-.075 1.57-.146 3.144-.146 4.772-.02 1.614.018 3.203.086 4.778h-10.134a3.774 3.774 0 00-3.368 2.072l-5.36 7.233c-1.267 2.51.557 5.475 3.368 5.475h17.537c5.546 22.923 21.513 38.555 42.909 38.232 15.191 0 26.641-7.552 34.285-22.589.973-1.915.12-4.264-1.84-5.14z" fill="#fff"/></g><defs><linearGradient id="prefix__paint0_linear_979_55" x1="130.72" y1="304.12" x2="33.48" y2="222.22" gradientUnits="userSpaceOnUse"><stop offset=".21" stop-color="#ED1E79"/><stop offset="1" stop-color="#522785"/></linearGradient><linearGradient id="prefix__paint1_linear_979_55" x1="309.32" y1="123.06" x2="212.08" y2="41.16" gradientUnits="userSpaceOnUse"><stop offset=".21" stop-color="#F15A24"/><stop offset=".68" stop-color="#FBB03B"/></linearGradient><clipPath id="prefix__clip0_979_55"><path fill="#fff" d="M0 0h360v360H0z"/></clipPath></defs></svg>