<svg version="1.1" id="prefix__O" xmlns="http://www.w3.org/2000/svg" x="0" y="0" viewBox="0 0 113.39 113.39" xml:space="preserve"><style>.prefix__st1{fill:#fff}</style><circle cx="56.69" cy="56.69" r="56.69" fill="#014299"/><path class="prefix__st1" d="M44.25 59.41A2.59 2.59 0 0041.66 62v20.28a2.59 2.59 0 005.18 0V62a2.59 2.59 0 00-2.59-2.59zM56.69 59.41c-1.45 0-2.62 1.17-2.62 2.62V88.5c0 1.45 1.17 2.62 2.62 2.62s2.62-1.17 2.62-2.62V62.02c0-1.44-1.17-2.61-2.62-2.61zM79.26 78.87c-.33.15-.64.28-.95.38h-.01c-.59.19-1.13.29-1.63.31h-.06c-1 .03-1.84-.27-2.59-.75-.49-.32-.91-.73-1.25-1.23-.3-.43-.53-.93-.71-1.51 0-.01-.01-.02-.01-.03-.22-.74-.34-1.61-.34-2.59V62.02c0-1.45-1.17-2.62-2.62-2.62-1.45 0-2.62 1.17-2.62 2.62v11.43c0 4.5 1.64 8.03 4.63 9.96 1.5.97 3.21 1.45 5.04 1.45 1.68 0 3.45-.41 5.25-1.22 1.32-.59 1.9-2.14 1.31-3.46-.57-1.32-2.13-1.91-3.44-1.31zM68.33 45.9c0-2.15-1.75-3.9-3.9-3.9s-3.9 1.75-3.9 3.9 1.75 3.9 3.9 3.9 3.9-1.75 3.9-3.9zM48.96 41.99c-2.15 0-3.9 1.75-3.9 3.9s1.75 3.9 3.9 3.9 3.9-1.75 3.9-3.9-1.75-3.9-3.9-3.9z"/><path class="prefix__st1" d="M56.69 22.28c-15.17 0-27.52 12.34-27.52 27.52v15.09c0 1.46 1.18 2.64 2.64 2.64s2.64-1.18 2.64-2.64V49.8c0-12.26 9.98-22.24 22.24-22.24 12.26 0 22.24 9.98 22.24 22.24v15.09c0 1.46 1.18 2.64 2.64 2.64s2.64-1.18 2.64-2.64V49.8c0-15.18-12.34-27.52-27.52-27.52z"/></svg>