<svg width="120" height="120" fill="none" xmlns="http://www.w3.org/2000/svg"><g clip-path="url(#prefix__a)"><mask id="prefix__a" x="0" y="0" width="120" height="120" style="mask-type:alpha" maskUnits="userSpaceOnUse"><path d="M60 0c33.133 0 60 26.867 60 60s-26.867 60-60 60S0 93.133 0 60 26.867 0 60 0z" fill="#0847F7"/></mask><g mask="url(#prefix__a)"><path d="M60 0c15.968-.097 31.82 6.608 42.927 18.072 10.647 10.837 16.928 25.843 17.076 41.043.269 14.951-5.325 29.917-15.373 40.998-10.274 11.482-25.108 18.78-40.499 19.755-14.813 1.055-29.962-3.624-41.536-12.945C10.179 97.068 1.907 82.128.324 66.338c-1.624-15.026 2.668-30.62 11.878-42.62 9.827-13 25.135-21.749 41.373-23.378C55.709.113 57.855 0 60 0z" fill="#3d8130"/><path d="M69.972 10.909c-3.397-1.351-7.12.04-10.011 1.933-1.585.96-3.13 2.002-4.832 2.749-2.646-3.781-7.408-5.364-11.85-5.546a44.955 44.955 0 00-9.528.546c-4.95 1.497-8.47 5.774-10.674 10.268-1.295 2.15-3.175 3.865-4.7 5.846-3.532 4.166-6.828 8.604-9.085 13.606-5.106 9.644-10.94 19.174-13.226 29.982-.604 3.034-.822 6.128-1.43 9.162-1.01 6.383-1.364 12.846-2.207 19.25.247 6.617 2.894 13.53 8.426 17.48 2.122 1.419 4.55 2.28 6.814 3.433 9.117 3.938 19.225 4.454 29.022 4.344 2.61-.033 5.163-.732 7.781-.683 6.29-.228 12.681.47 18.872-.976 2.256.143 3.735-1.844 5.266-3.174.96-1.59 3.134-.633 3.302.952 1.342 1.065 2.857 1.892 4.227 2.927 3.191 2.22 6.822 4.281 10.838 4.146 6.055.35 12.3.99 18.178-.94 1.472-.554 2.979-.986 4.438-1.562 1.994-.873 3.447-2.921 3.284-5.143-.006-3.545-2.06-6.607-4.048-9.378-1.697-2.962-3.615-5.82-6.045-8.236-2.499-2.58-5.508-4.618-8.734-6.17-1.406-.862-1.277-2.73-.353-3.899 1.105-1.887 2.908-3.645 2.77-5.999-.739-1.285-.476-2.653.704-3.534 1.363-1.964 2.126-4.688.93-6.914.962-1.274 2.446-2.131 3.035-3.69 1.611-3.398.097-7.403-2.317-10.004-1.373-1.517-3.212-3.357-2.612-5.602.396-1.719 2.487-2.391 2.405-4.264.753-4.11.454-8.32 1.017-12.452-1.548-1.238-3.325-2.214-4.573-3.795-2.35-2.518-4.362-5.45-7.333-7.301-4.505-4.533-6.176-11.306-11.419-15.19-1.529-1.188-3.554-1.812-5.278-2.27-.318.042-.798.483-1.054.099zm1.945 36.07c-3.513-3.82-6.993-7.855-11.584-10.419-.82.104-2.32-1.198-.67-1.17 2.225-.173 4.583-.038 6.573 1.068 2.12 2.285 5.023 4.23 5.71 7.471a6.682 6.682 0 01-.032 3.05m21.75 11.116c-1.15 1.577-3.256 1.656-4.92 2.357 1.469.841 3.353.572 4.6-.544 1.433-1.482 3.665-.86 4.112 1.146 1.385 2.826.97 6.26-.718 8.862-1.99 3.303-5.75 5.648-9.675 5.36-8.716.436-17.42-.519-26.08-1.377-7.709-1.063-15.306-2.8-22.86-4.638-2.86-.868-5.735-2.547-8.817-1.95-1.797.566-2.73 2.936-1.673 4.538 1.742 3.538 5.652 5.02 9.01 6.59 1.831.794 3.514 1.878 5.244 2.85 5.344 2.515 10.8 5.478 16.858 5.545 6.412 1.098 12.962 1.332 19.447.907 2.737-.41 5.499-.237 8.25-.127 2.838.084 5.92-.226 8.194-2.098 1.129.154.288 2.328.152 3.25-.449 1.369-1.225 2.822-2.585 3.455-1.942.146-2.977-2.333-5.046-2.183-3.414-.349-6.277 1.966-8.695 4.077-2.22 1.965-4.304 4.15-6.92 5.602-1.28-1.752-4.069-2.118-5.666-.587-1.984 1.525-2.545 5.05-.318 6.616 1.592 1.135 3.002 2.569 3.711 4.425 1.332 2.93 1.195 6.993-1.586 9.045-2.341 1.674-5.268 2.25-8.062 2.664-5.71.657-11.472.029-17.194.537-5.168.376-10.38 1.005-15.547.265-9.011-.507-18.248-2.535-25.758-7.768-3.98-2.569-6.11-7.17-7.052-11.677-.745-3.566-.457-7.231.056-10.806.902-7.68 1.764-15.38 3.246-22.976C-.11 58.516 5.95 48.922 11.045 39.065c1.479-2.995 3.168-5.9 5.348-8.447 3.227-3.997 6.968-7.677 9.262-12.334 2.4-4.049 6.783-7.002 11.538-7.234 5.517-1.317 11.658.097 16 3.755 1.882 1.7 3.227 4.218 2.928 6.81-5.86-.732-12.086-1.528-17.71.786-2.387 1.029-4.529 2.696-5.974 4.871 2.017-.21 3.51-1.848 5.067-2.985 2.071-1.491 4.722-1.757 7.176-2.131 4.537-.496 9.152.092 13.501 1.432 5.077 2.78 8.483 7.805 10.673 13.035-3.185-2.137-7.173-2.426-10.899-2.508-3.147.114-6.282.563-9.437.366-4.41-.066-9.128-.277-13.126 1.896-2.387 1.645-4.61 3.956-5.256 6.86-.168 1.793 1.757 2.467 3.226 2.371 1.849.07 3.336 1.285 4.967 2.009 5.05 2.706 9.985 5.99 15.737 6.972 5.147 1.511 10.833 1.167 15.732-1.036 1.644 1.26-.45 3.083-1.853 3.3-2.299.892-4.87 1.197-7.261.488-4.732-.697-9.666-.124-14.255-1.711-2.211-.746-4.227-2.101-5.596-4.008-.452-.926-3.421-2.055-2.549-.139 1.471.796 2.497 2.162 3.747 3.256 3.756 2.827 8.625 3.065 13.128 3.423 2.548.298 5.109.452 7.67.431 1.395-.395 2.99 1.11 1.313 2.081-2.561 2.462-5.784 4.11-9.17 5.112-1.723.542-3.474.982-5.216 1.455 1.552 1.38 3.733.472 5.399-.174 2.662-1.09 5.028-2.802 7.745-3.773 1.784-3.573 6.31-4.382 8.394-7.69 1.005-1.584.024-3.267-.986-4.524-1.936-3.23-3.384-7.108-6.815-9.08-1.253-.875-2.949-.69-4-1.855-4.242-3.085-9.83-3.766-14.887-2.771-2.024.122-4.06.443-5.866 1.416-2.783 1.375-5.074 3.508-7.569 5.316.626-3.978 4.194-6.808 7.915-7.8 2.956-.892 6.105-1.023 9.156-.627 5.814-.752 12.264.902 16.171 5.48 3.596 1.845 5.266 5.728 7.508 8.861.472 1.085.958.528.671-.35.081-3.025 1.075-6.36-.655-9.12-1.072-1.29-2.52-2.473-2.044-4.332-.73-3.445-3.586-5.82-5.123-8.864-.808-1.877 1.582-1.936 2.775-2.272 9.374-2.159 20 1.66 25.443 9.686-3.732.62-7.728-.545-11.283 1.078-.884.374-1.555 2.402-.1 1.248 3.711-1.726 8.048-1.56 11.925-.517 1.95.559 3.965 1.48 5.09 3.254-6.047-3.328-13.999-3.644-19.895.185-.968.606-1.916 1.365-2.39 2.435 1.417 1.078 2.566-1.137 3.59-1.843 3.728-2.334 8.39-2.436 12.606-1.69 1.494.325 3.069.559 4.445 1.216 1.143.773 2.06 3.88.297 4.07-.962-1.2-1.411-2.863-3.177-3.206-4.343-1.99-9.736-1.324-13.528 1.556-2.156 2.553-5.091 4.556-6.45 7.705-.594 1.624.492 3.787 2.339 3.79 5.423 1.006 11.094 1.382 16.502.09 1.663-.28 2.778-1.574 3.896-2.713.521-.556 1.564-.839.951.227-.34 1.706-.991 3.659-2.802 4.29-1.673.724-3.627.677-5.17 1.717.303 1.056 2.329.321 3.306.493.174-.016.347-.035.52-.058zM75.918 98.084c2.628-3.344 6.366-6.265 10.762-6.507 2.74-.06 5.311 1.765 6.379 4.247.922 1.385 2.698 1.595 3.952 2.569 6.125 3.904 10.273 10.139 13.52 16.495.83 1.54 2.125 3.112 1.71 4.986-.333 2.268-2.523 3.484-4.39 4.398-2.714 1.22-5.676 1.808-8.614 2.164-3.682.047-7.373.087-11.05-.138-2.755-.234-5.59-.617-8.096-1.834-3.135-1.926-6.781-3.643-8.525-7.082-.777-1.66-.746-3.585-.304-5.332-.128-2.927-2.745-4.724-4.438-6.807-1.305-1.323-2.017-3.815-.337-5.139 1.469-1.267 3.62-.43 4.33 1.227 1.017 1.61 1.827 3.758 3.867 4.28 2.16-.352 1.127 2.41 2.075 3.6 1.726 4.245 5.629 7.556 10.073 8.622 1.586-.093 1.97 1.455 2.907 2.301 2.577 1.8 6.218.4 8.657 2.546 1.734 1.093 3.768-.818 5.124-1.889 1.318-1.218 2.638-2.63 3.019-4.445-.458-1.576-1.39 1.426-2.203 1.691-1.55 1.569-3.226 3.267-5.46 3.754-1.905-.103-2.045-3.141-.409-3.844 1.397-1.238 2.542-2.743 3.456-4.364-.257-1.285-2.091.979-2.447 1.691-1.53 2.358-4.018 4.2-6.805 4.698-1.834.233-3.117-1.665-2.814-3.346.427-2.512 2.828-3.859 4.385-5.64.84-.482 1.374-2.609-.173-1.856-3.004 1.623-3.374 5.611-6.141 7.485-1.988.89-3.912-.823-5.214-2.152-1.388-1.62-.662-3.929.777-5.239 1.924-2.185 4.675-3.28 7.163-4.651a13.502 13.502 0 003.799-3.607c-.944-.796-2.296 1-3.138 1.558-.636.804-1.429.376-.697-.534.921-2.006-1.528-3.04-3.136-2.976-2.974-.283-5.247 2.007-7.52 3.553-1.682 1.244-3.903 2.18-5.97 1.323-1.987-.529-2.557-3.839-.264-4.353 1.662-.8 4.719 1.14 2.627 2.749-1.41 1.568 1.93 1.114 1.733-.375.51-1.627-.264-3.716-2.17-3.828zm23.844-32.92c1.564 1.664 1.657 4.398.274 6.202-1.852 2.882-4.843 4.71-7.144 7.184-5.945 2.26-12.36.704-18.52 1.165-7.737-.234-15.228-2.79-22.993-2.685-5.593-1.113-11.2-2.556-16.29-5.173-.866-.942-2.923-1.444-1.559.297 1.397 1.767 3.752 2.287 5.787 2.958 2.604.731 5.311 1.217 7.737 2.464 6.348 1.427 13.013.803 19.269 2.724 8.301 1.045 16.706.98 25.038.362 2.137-.67 3.49-2.664 5.544-3.492 1.875.722.453 3.261-.351 4.404-2.734 3.962-7.973 5.639-12.604 4.759-1.883-.295-3.762.227-5.653.208-6.218.276-12.478.142-18.65-.688-5.263-.839-10.673-1.867-15.239-4.774-5.19-2.651-10.65-4.98-15.196-8.691-1.165-1.031-1.05-3.102.505-3.682 1.631-.84 3.725-.454 5.095.715 7.937 2.737 16.273 3.972 24.5 5.486 8.957 1.142 17.987 1.826 27.02 1.77 3.99-.205 8.325-1.538 10.695-4.975 1.289-1.995 2.195-4.228 2.736-6.538zM84.64 26.124c-6.325-3.483-14.055-3.423-20.817-1.321-1.693.867-3.167-.679-4.375-1.664-1.847-1.775-3.437-4.592-2.26-7.152.927-1.767 3.017-2.255 4.608-3.215 5.26-2.41 11.723-.904 16.004 2.784 1.917 1.855 3.21 4.232 4.666 6.44a36.359 36.359 0 012.174 4.128zM61.373 42.73c-7.033 1.33-14.266-.462-21.28 1.086-1.806.336-3.635.938-5.488.611-.86-1.447 1.205-2.56 2.176-3.312 4.706-2.856 10.42-2.907 15.75-2.747 3.42.3 5.76 3.205 8.843 4.362zm-3.726 11.285c2.013-1.958 1.648-5.021 1.29-7.544-.735-1.499.366-2.913 1.998-2.579 3.13-.25 5.951 2.003 7.087 4.813.53 1.19.836 2.476.936 3.775-3.575 1.326-7.493 2.639-11.31 1.535zM81.614 43.37c3.696-2.62 9.018-3.234 12.95-.782 1.4.975 2.36 2.465 2.98 4.032-1.267.898-2.516-.924-3.757-1.23-1.595-.907-3.337-1.806-5.23-1.627-2.308-.22-4.629-.257-6.943-.393zm8.073 1.719c2.445.895 5.209 1.507 7.02 3.518.98 1.79-1.26 3.09-2.611 3.753-1.026.84-4.373 1.914-3.629-.485 1.194-1.523 1.028-3.555.16-5.194a11.008 11.008 0 00-.94-1.592zm-11.817 64.26c-1.103-1.74-.437-4.161 1.326-5.185 2.233-1.701 5.043-2.393 7.31-4.04-.896 2.922-3.574 4.712-5.722 6.677-.986.831-1.977 1.66-2.914 2.548zm2.494 3.036c-1.723-.985-1.14-3.417.363-4.308 2.032-1.88 4.616-3.165 6.279-5.434-.221-1.409 2.973-1.961 1.686-.188-1.165 1.964-2.775 3.648-4.621 4.983-2.057.732-3.029 3.05-3.707 4.947zM36.856 45.53c2.515-.14 4.942-1.172 7.484-.918 1.31 1.077-.82 3.056-1.782 3.371-2.092-.337-3.594-2.166-5.702-2.453zM54.3 50.42c-2.087-.006-2.308-2.872-.23-3.156 1.932-.964 3.28 1.43 1.698 2.701-.401.348-.951.452-1.468.455zm24.338-3.877c-1.256 1.86-.568 4.238-1.317 6.258-1.774.951-3.058-1.91-1.519-3.03.763-1.224 1.842-2.199 2.836-3.228zm10.322 2.68c-.055 2.033-2.86 1.936-2.692-.16-.087-1.92 2.728-1.405 2.692.16zm-40.955-2.074c-1.81-.494-.025-2.714.953-1.2.217.593-.546.958-.953 1.2zm33.726 1.078c-1.484-.396-.67-2.645.696-1.576.654.51-.191 1.354-.696 1.576zm-33.084 2.187c-1.882-.25-.146-2.725.894-1.322.055.57-.515.987-.894 1.322zM81.97 51.73c-1.908-.4.375-2.575.743-.81-.126.357-.444.6-.743.81z" fill="#0a130a"/><path d="M99.761 65.164c-.779 3.465-2.46 6.841-5.274 9.093-.947.828-2.089 1.42-3.332 1.646-1.026.177-2.03.482-3.062.613-1.577.01-3.154.05-4.727.174-1.602.125-3.21.065-4.804-.115-2.724-.198-5.456-.312-8.168-.642a34.898 34.898 0 01-5.595-.316c-2.185-.32-4.38-.563-6.57-.861-3.22-.516-6.436-1.095-9.6-1.892-2.91-.72-5.93-.927-8.8-1.824-3.218-1.09-6.455-2.18-9.808-2.78-1.148-.119-1.65 1.26-1.652 2.197a2.78 2.78 0 001.37 2.429c2.113 1.635 4.34 3.198 6.89 4.07.938.508 1.799 1.154 2.747 1.649 3.305 1.836 6.862 3.164 10.176 4.983 2.182 1.023 4.602 1.353 6.966 1.68 1.46.112 2.965.133 4.328.736 2.6.814 5.346.192 8.007.508 1.963.198 3.936.29 5.907.175 3.026-.086 6.045-.332 9.063-.545 2.016-.066 4.026.596 6.03.135 2.426-.467 4.597-2.004 5.898-4.097.736-1.121 2.02-1.983 2.113-3.433.051-.614-.145-2.182-.999-1.879-1.14.925-2.31 1.822-3.354 2.858-1.125.945-2.65 1.003-4.045 1.077-2.75.176-5.505.387-8.261.314-1.615-.12-3.236-.277-4.854-.107-2.076.045-4.152-.12-6.222-.262-3.009-.229-6-.709-8.91-1.518-2.509-.602-5.103-.737-7.674-.644-1.967-.082-3.919-.42-5.838-.841-3.62-.868-6.962-2.613-10.596-3.427-1.684-.316-3.04-1.435-4.327-2.489-.717-.404-.342-1.69.501-1.105 1.073.575 1.879 1.555 3.03 2 1.325.598 2.81.66 4.152 1.216 2.865 1.017 5.705 2.165 8.692 2.781 2.167.398 4.37.605 6.575.535 2.746.03 5.445.604 8.092 1.292 2.058.481 4.165.682 6.27.824 1.808.22 3.628.467 5.453.296a31.738 31.738 0 015.685.128c2.511.272 5.012-.241 7.522-.28 1.346-.052 2.808-.013 3.955-.84.787-.532 1.316-1.36 2.133-1.86.84-.566 1.597-1.246 2.182-2.076 1.249-1.54 2.689-2.926 3.834-4.548.616-.929.637-2.195 0-3.12-.397-.618-.59-1.362-1.099-1.908z" fill="#983b1f"/><g fill="#fff"><path d="M57.647 54.016c2.99.532 6.206.548 8.998-.793.686-.52 1.625-.351 2.317-.748.159-.95-.59-1.846-.823-2.76-.513-1.184-.904-2.44-1.593-3.537-.538-.726-1.247-1.31-1.963-1.85-.904-.258-1.872-.143-2.804-.137-1.238.054-2.47.183-3.709.226 1.16 1.584 1.616 3.653 1.176 5.572-.296 1.423-.915 2.754-1.599 4.027zM89.687 45.088c1.216 1.697 2.062 3.876 1.459 5.967-.245.9-.707 1.728-1.272 2.466 2.208-.02 4.444-.881 5.914-2.565.47-.803 1.542-1.308 1.69-2.248-.536-.697-1.584-.775-2.324-1.22a23.362 23.362 0 01-3.425-1.83c-.632-.33-1.337-.496-2.042-.57zM36.856 45.53c2.01 1.15 4.569 1.322 6.24 3.048.207-1.62 1.291-2.928 2.357-4.09-2.88.206-5.761.484-8.597 1.042z"/></g><path d="M54.3 50.42c.928.163 1.808-.475 2.11-1.333.363-.721.083-1.687-.68-2.012-1.03-.59-2.291.01-3 .825-.559.734-.338 1.957.56 2.312a2.38 2.38 0 001.01.208z" fill="#fefefe"/><path d="M78.638 46.543c-1.348 1.373-2.856 2.739-3.503 4.604-.365.695-.12 1.598.776 1.593.61.076 1.308.514 1.864.352-.393-1.302-.377-2.708 0-4.015.228-.864.547-1.7.863-2.534z" fill="#fff"/><path d="M88.96 49.222c.143-1.05-.947-1.552-1.838-1.464-.99.061-1.26 1.359-1.05 2.157.213.964 1.474 1.127 2.242.776.524-.283.657-.923.646-1.469zM48.005 47.15c.807.132 1.32-.926.804-1.507-.628-.71-1.834-.1-1.704.812.065.43.484.706.9.695zm33.725 1.077c.846-.174 1.236-1.469.32-1.821-.853-.332-1.454.866-.94 1.482.163.176.395.27.62.339zm-33.083 2.187c.83.004 1.093-1.296.42-1.68-.705-.256-1.585.392-1.287 1.165.111.37.518.506.867.515zM81.97 51.73c.746.07.959-1.143.35-1.433-.717-.343-1.438.434-1.024 1.115.13.242.413.338.674.318z" fill="#fefefe"/><path d="M81.073 59.14c1.556.145 3.172.259 4.695-.15.991-.04.818-1.597-.16-1.238-1.12.399-2.344.346-3.513.266-2.083-.207-4.053-.968-5.982-1.734-.95-.134-.834 1.121-.043 1.283 1.373.638 2.738 1.34 3.903 2.323 1.36 1.056 2.282 2.53 3.45 3.772.584.636 1.062 1.36 1.486 2.106.748.637 1.288-.676.678-1.19-.774-1.42-2-2.515-3.022-3.75-.494-.563-1.012-1.125-1.492-1.688zm-47.834 5.418c-2.292.14-4.747.29-6.674 1.686-.895.638-1.697 1.478-2.112 2.508-.134.896 1.15.874 1.261.054.996-1.65 2.872-2.532 4.73-2.77 1.28-.17 2.569-.307 3.86-.265.966-.033.467-1.503-.373-1.213a7.88 7.88 0 01-.692 0zm-5.648-2.39c.046.941.97.432 1.459.196 1.228-.453 2.555-.452 3.829-.67.812-.597-.176-1.358-.877-1.05-1.438.046-2.962.189-4.196.995a.568.568 0 00-.215.529z" fill="#0a130a"/></g></g><defs><clipPath id="prefix__a"><path d="M0 0h120v120H0z" fill="#fff"/></clipPath></defs></svg>