<svg xmlns="http://www.w3.org/2000/svg" viewBox="0 0 484 324"><circle cx="243.9" cy="163" fill="#fff" r="122.5"/><path d="M235.9 39.7c-4.2.2-10.1.8-10.6 1-.2.1-1.6.3-3 .5s-3.4.6-4.4.8c-1 .2-2.6.6-3.7.8-1 .2-2.6.6-3.4.8-.8.2-2.5.7-3.6 1-2.1.6-7.8 2.5-8.7 3-.3.1-.6.2-.8.2-.2 0-.9.3-1.6.6-1.9.8-2.8 1.2-3.8 1.6-.9.4-8.3 3.9-9.5 4.6-.7.4-1.1 0 8.4 9.7 2.6 2.7 5.9 6.1 7.4 7.6 3 3.2 3 3.2 3.9 2.9 1.6-.7 10.9-3.4 13.1-3.9 8.6-1.8 14.5-2.5 25.6-2.9 6.1-.2 18.6.8 25.6 2.2 4.3.8 4.9 1 5.9 1.2.5.1 2.2.6 3.7 1s4.1 1.1 5.7 1.6c1.6.5 3 1 3 1s1.2-1.4 2.7-3.2c1.5-1.8 3.1-3.7 3.6-4.3.5-.6 1.6-1.8 2.3-2.7 1.9-2.2 6.3-7 8-8.7.8-.7 1.4-1.5 1.4-1.6 0-.3-4.6-2.6-10.7-5.3-2.5-1.1-3.1-1.4-3.4-1.4-.2 0-.5-.1-.8-.3-2-1.1-14.2-4.6-20.2-5.7-10.1-1.9-21.3-2.7-32.1-2.1m109.2 52.2c-.2.6-.8 3-1.4 5.4-1.2 4.8-2.1 8.1-3.3 12.2-.4 1.5-1.1 3.6-1.4 4.6-.3 1-1.3 4.3-2.3 7.1l-1.7 5.2.5 1c.3.6 1.6 3 2.8 5.5 4.4 8.4 7.6 16.6 9.3 23.9.4 1.6.8 3.3.9 3.9 1.8 6.6 3 17.7 3 27.6 0 3-.1 6.1-.3 6.8-.7 3.3-.9 4.1-1.5 5.9-.4 1.1-.8 2.3-1 2.8-.6 2-3.9 8.2-6.1 11.4-3.6 5.3-4.9 6.9-9.3 11.7-1.2 1.3-2.5 2.7-2.7 3-1.7 2-10 9-13.3 11.4-10.1 7.2-19.4 12.6-29.5 17-3.5 1.5-11.5 4.6-12.1 4.6-.1 0-.6.2-1.1.4-1.1.5-4.5 1.5-5 1.5-.2 0-.6.1-.8.2-.4.2-2.5.7-7.4 1.8-1.1.2-2.8.6-3.7.8-.9.2-2.1.4-2.6.4s-2.2.2-3.7.4c-7.7 1.2-18.6.2-29-2.5-2.2-.6-7.7-2.3-8.3-2.5-.3-.1-1.2-.4-1.9-.7-7-2.3-23.1-9.8-28.5-13.3-.6-.4-1.1-.7-1.2-.7-.1 0-1.1-.6-2.2-1.4-1.1-.7-2.1-1.4-2.1-1.4-.6 0-9.8-6.6-14-10-8.2-6.7-11.2-9.6-17.8-17.1-1.2-1.3-4.2-5.4-4.2-5.6 0-.1-.6-.9-1.2-1.9-.7-1-1.3-2-1.4-2.3-.1-.2-.4-.8-.6-1.1-4.8-7-5.9-14.1-4.3-29.8.4-4.6 2.1-14.6 3-17.6 1.5-5.3 2.9-10.1 3.3-11 .1-.3.4-1.2.7-2 .6-1.9 3.1-8.3 4.2-10.8.5-1 1.6-3.5 2.5-5.4 2.1-4.6 2.1-4.8.1-10.3-2.2-5.8-3.7-10.7-4.5-13.7-.1-.4-.5-1.8-.8-3-1.1-3.8-1.9-7.3-2.5-10.6-.4-2-.3-2-2.7 1.5-3.7 5.7-7.8 13.2-9.9 18.1-.3.7-.8 2-1.3 2.9-.4.9-.8 2-.9 2.5-.1.5-.3.9-.4 1-.1.1-.3.3-.3.6 0 .2-.2.8-.4 1.3-1 2.2-2.6 7.9-4.4 15.6-1.3 5.3-2.1 12.9-2.7 23.2-.3 4.5.8 16.6 2 22.9.7 3.9 1.8 8.6 2.4 10.9 2 6.8 2.4 8.1 3.6 10.8.2.5.4 1 .4 1.2 0 .2.1.5.3.8.1.3.8 1.7 1.4 3.2 6.2 14.9 17.7 31 30.8 42.8 4.9 4.4 7.2 6.2 14.2 11.2 1.7 1.2 5.7 3.7 8.8 5.4 1.8 1 11.1 5.6 11.3 5.6.1 0 .7.2 3.5 1.5 1.6.7 7.2 2.6 12.1 4.1 20.3 6.1 47 6.3 67.9.4 1.2-.3 2.6-.7 3.1-.8.5-.1 1.2-.3 1.6-.5.4-.2 1.6-.5 2.8-.9 1.1-.3 2.2-.7 2.4-.8.2-.1 1-.4 1.8-.7.7-.3 1.7-.6 2.2-.8.4-.2 1.9-.8 3.3-1.4 12.4-5.2 25.3-13.5 35.4-22.8 4.9-4.5 7.4-7.1 11.7-12.1.9-1.1 5-6.4 7.1-9.4 7.1-10 13.8-24.6 17.4-38.3 4.3-16.2 4.9-38.9 1.5-53.9-.1-.6-.5-2.3-.8-3.8-.3-1.5-.8-3.3-1-3.9-1.7-5.7-2.1-7.1-2.5-8-.2-.6-.6-1.5-.8-2-2.3-6.1-5.5-13.1-7.7-17.1-2.9-5-5.5-9.2-7.1-11.3l-1.3-1.7-.4.9m-37 50.3c.4.1 1.1.1 1.5 0 .4-.1.1-.1-.7-.1-.9 0-1.2 0-.8.1m-30.5 27.2c.3.1.7.1 1 0 .3-.1 0-.1-.5-.1s-.8 0-.5.1" fill-rule="evenodd" clip-rule="evenodd" fill="#f30504"/><path d="M143.1 32.6c-4.8 3.1-7.9 19.1-6.5 32.5.1 1.4.4 4 .5 5.9.5 5.8 1.2 11.5 2.1 15.9.2 1 .5 2.7.6 3.7.1 1 .3 1.8.4 1.9.1.1.3.8.5 1.6.7 3.6 1.5 6.8 2.5 10.5.3 1.2.7 2.5.8 3 .8 3.1 2.4 7.9 4.5 13.7 2 5.5 2 5.7-.1 10.3-.9 1.9-2 4.3-2.5 5.4-1.1 2.4-3.6 8.9-4.2 10.8-.2.8-.5 1.7-.7 2-.4.9-1.8 5.8-3.3 11-.5 1.6-1.6 7.7-2.3 12.2-.6 3.8-1.6 14.4-1.4 14.6.1.1 1 0 2.1-.2 4.1-.6 6.5-.8 12.3-.8 6.7 0 9.9.3 15.7 1.6 10 2.2 21.8 9 30 17.4 1.7 1.7 1.5 1.7 2.5-.3 7.8-17.2 17-27.2 29.9-32.7 8.3-3.5 19.8-4.1 29.8-1.5 13.4 3.5 24.7 14 30.7 28.5.5 1.1 1 2.3 1.1 2.6.1.3.6 1.4 1 2.4s.8 2 .8 2.1c.1.1 1-.5 2-1.5 6.4-6.1 12.2-9.9 21.3-13.9.6-.3 1.2-.5 1.3-.5.2 0 .7-.2 1.1-.4 2.5-1.1 7.4-2.3 12.8-3.1 5.2-.8 20.3-.5 22.6.5.7.3.5-6.2-.5-15.4-.5-4.3-1.3-8.9-2.1-11.8-.1-.5-.6-2.3-.9-3.9-1.7-7.3-4.9-15.5-9.3-23.9-1.3-2.5-2.6-5-2.8-5.5l-.5-1 1.7-5.2c1-2.9 2-6.1 2.3-7.1.3-1 .9-3.1 1.4-4.6 1.3-4.2 2.1-7.5 3.3-12.2.6-2.4 1.2-4.9 1.5-5.6.4-1.2.7-2.5 1.4-6.1 1.3-6.3 1.9-10.2 2.4-14 .2-1.7.5-4.3.7-5.7.4-3.3.4-15.6 0-18-.7-4.4-.9-5.2-1.6-7.2-1.7-5.3-3.6-8.4-5-8.2-.5.1-1.6.2-2.3.3-1.2.2-3.1.6-6.7 1.6-8.3 2.3-21.9 11-29.2 18.6-.6.6-1.2 1.1-1.4 1.1-.2 0-.4.2-.4.4s-.6 1-1.4 1.7c-1.7 1.6-6.1 6.4-8 8.7-.7.9-1.8 2.1-2.3 2.7-.5.6-2.2 2.5-3.6 4.3-1.5 1.8-2.7 3.2-2.7 3.2s-1.4-.4-3-1c-1.6-.5-4.2-1.3-5.7-1.6-1.5-.4-3.1-.8-3.7-1-.9-.3-1.5-.4-5.9-1.2-7-1.4-19.5-2.4-25.6-2.2-11 .4-16.9 1.1-25.6 2.9-2.3.5-11.5 3.2-13.1 3.9-.8.3-.8.3-3.9-2.9-1.4-1.5-4.7-4.9-7.4-7.6-7.8-8-9-9.3-8.8-9.5.1-.1.1-.2 0 0-.1.1-1.1-.6-2.1-1.5-10-9.4-17.3-14.9-24.4-18.2-4.9-2.5-11.1-3.7-12.7-2.5m94.2 7c.4.1 1 .1 1.4 0 .3-.1 0-.1-.8-.1-.7 0-1 .1-.6.1m-40.4 77.2c8.1 2.2 14 13.3 8.9 17.2-2.8 2.1-12.7 3.1-20.2 2-6.4-.9-7.3-10.3-1.5-15.6 3.9-3.4 8.5-4.7 12.8-3.6m97.3 0c8.7 2.3 13.2 12.2 8 17.6-3.1 3.2-20.5 2.4-23.7-1-1.2-1.3-1.9-3.9-1.4-5.2.1-.4.3-.9.3-1.3 0-1 1.4-3.5 3-5.2 4.1-4.5 8.8-6.1 13.8-4.9m16.5 26.7c.8 2.8.9 3.6.9 7.9v4.4l-1.8 1.7c-3.7 3.4-7.5 5.5-14.2 7.8-3.7 1.3-4.8 1.6-11 3.1-4 .9-10.9 1.4-14.4.9l-1.3-.2.2-1.6c.4-3.7 3.7-7.5 10.5-11.9 7.4-4.9 11.7-7.3 19.9-11 2.9-1.3 7.5-2.5 9.6-2.4h1.3l.3 1.3m-128.1-.5c2.3.5 3.9 1 5.7 1.8 3.1 1.4 7.5 3.6 10.6 5.4 1.9 1.1 4.1 2.3 4.9 2.7 9.5 5.2 15.3 10.7 15.3 14.6 0 6.2-31.3-1-40.9-9.4-3-2.6-3.5-8.7-1.3-14.1.7-2 .9-2 5.7-1m-63.9 3.4c0 .5.1.7.1.5.1-.3.1-.7 0-1-.1-.3-.1-.1-.1.5m249.5 3.6c0 .6.1.8.1.5.1-.3.1-.8 0-1.1 0-.2-.1 0-.1.6m-250.6 8.3c0 .5.1.7.1.5.1-.3.1-.7 0-1 0-.2-.1 0-.1.5m251.2 3.7c0 1.8 0 2.5.1 1.6.1-.9.1-2.4 0-3.3-.1-.9-.1-.1-.1 1.7m-251.2 5.3c0 .5.1.7.1.5.1-.3.1-.7 0-1 0-.2-.1 0-.1.5m250.6 7.8c0 .6.1.8.1.5.1-.3.1-.8 0-1.1 0-.3-.1 0-.1.6m-16.6 14.5c0 .7.1.9.1.6.1-.3.1-.9 0-1.2 0-.3-.1-.1-.1.6m-196 39l.9.9.9.8-.8-.9c-.7-.8-1-1-1-.8m172.1 4.1l-.8.9.8-.9c.6-.4 1-.8 1-.8 0-.2-.2 0-1 .8M150.9 246c.6.6 1.1 1.1 1.2 1.1.1 0-.3-.5-.9-1.1-.6-.6-1.1-1.1-1.2-1.1-.1 0 .3.5.9 1.1m6.8 6.8c.6.6 1.1 1.1 1.2 1.1.1 0-.3-.5-.9-1.1-.6-.6-1.1-1.1-1.2-1.1s.3.5.9 1.1m169.5 1.4l-.8.9.8-.9c.6-.4 1-.8 1-.8 0-.2-.3 0-1 .8m-84.3 15.1c.3.1.8.1 1.1 0 .3-.1 0-.1-.6-.1s-.8 0-.5.1m-6.7 16.3c.3.1.7.1 1 0 .3-.1 0-.1-.5-.1s-.7 0-.5.1" fill-rule="evenodd" clip-rule="evenodd" fill="#fba10b"/><path d="M177.5 142.6c-1.5 2-2.5 8.5-1.7 11.3.1.5.3 1.3.4 1.7.3 1.5 4.4 4.6 9.1 7 9.4 4.8 28 8.5 32.6 6.5l1.3-.6-.2-1.5c-.4-3.5-3.6-7-11.1-11.8-1.4-.9-2.7-1.7-2.8-1.7s-1.5-.8-3.1-1.7c-6.1-3.6-12.7-6.9-16-8-3.5-1-8.1-1.7-8.5-1.2m128.5-.1c-5.1 1.1-12.1 4.3-20.9 9.6-11.5 6.9-15.6 11-16.1 15.6l-.2 1.5 3.2.2c12.3.8 30.2-4.9 37.9-12l1.7-1.6v-4.4c0-4.2-.1-5-.8-7.9l-.3-1.3h-1.9c-1.2.1-2.3.2-2.6.3m-72 43.7c-3.6 1.1-5.2 5.9-4.1 12.5.8 5.1 6.9 10.7 14.2 13 .4.1.5.6.5 4.2v4.1l-.9.5c-.5.3-1.3 1.1-1.8 1.9-.5.7-.9 1.4-1 1.4-.4.5-10.4.1-14.4-.6-2.2-.4-8.6-.6-8.9-.3-.1.1.2.6.6 1.1 1.2 1.3 1.8 2.7 2.3 5.1l.5 2.1h1.1c1.2 0 1.2 0 2 2.7.6 1.8 2.1 5.3 2.8 6.1l.5.6.5-1.1c.5-1 .5-1.8.5-6.6v-5.5l1.4.1c.8.1 2.5.2 3.9.4 8 .8 17.9.8 24.9 0 1.1-.1 3-.3 4.1-.4l2.1-.2-.1 5.2c0 5 0 5.3.6 6.4.6 1.2 1.2 1.7 1.2 1.2 0-.2.2-.7.4-1.2s.9-2.3 1.6-4l1.2-3.1 1.4-.4 1.4-.4.9-3.1c.5-1.7.9-3.6 1-4.1l.2-1h-4c-3.3 0-4.2.1-5.1.5-1.6.7-3.8.9-8.2.7l-3.9-.2-1.2-1.6c-.7-.9-1.5-1.7-1.9-1.8l-.7-.2.1-4.1.1-4.1 1.1-.5c8.3-3.9 10.8-7.5 10.9-16.1 0-6.5-.8-8-5.1-9.2-2.3-.6-20.8-.6-22.7 0m.7 45.7c.3 1.2.7 1.7 2.4 2.4l1.4.6.9-1c1.6-1.7 2.8-1.2 4.6 1.8 1.1 1.9 2.5 1.6 5.1-1.4 1.2-1.4 1.1-1.3 2.6-.2l1.2.9 1-.7c1.2-.8 1.5-1.2 1.7-2.4l.2-.9h-21.4l.3.9" fill-rule="evenodd" clip-rule="evenodd" fill="#060505"/></svg>