<svg width="146" height="146" fill="none" xmlns="http://www.w3.org/2000/svg"><rect width="146" height="146" rx="73" fill="#3B00B9"/><path fill-rule="evenodd" clip-rule="evenodd" d="M16.384 77.205c2.05 28.001 24.41 50.361 52.41 52.411v6.324c-31.485-2.073-56.661-27.249-58.733-58.735h6.323z" fill="url(#prefix__paint0_linear_110_604)"/><path fill-rule="evenodd" clip-rule="evenodd" d="M68.765 16.353c-28.001 2.05-50.361 24.41-52.412 52.412H10.03c2.073-31.487 27.248-56.662 58.735-58.735v6.323z" fill="#29ABE2"/><path fill-rule="evenodd" clip-rule="evenodd" d="M129.616 68.734c-2.05-28-24.41-50.36-52.41-52.41V10c31.485 2.072 56.661 27.248 58.733 58.734h-6.323z" fill="url(#prefix__paint1_linear_110_604)"/><path fill-rule="evenodd" clip-rule="evenodd" d="M77.235 129.586c28.001-2.05 50.361-24.41 52.412-52.411h6.323c-2.073 31.486-27.248 56.662-58.735 58.734v-6.323z" fill="#29ABE2"/><path d="M89.225 82.34c0-8.603-5.162-11.553-15.487-12.786-7.375-.985-8.85-2.95-8.85-6.39 0-3.439 2.46-5.651 7.375-5.651 4.425 0 6.885 1.474 8.112 5.162.248.738.986 1.227 1.723 1.227h3.935c.986 0 1.723-.737 1.723-1.723v-.247c-.985-5.41-5.41-9.588-11.062-10.078v-5.9c0-.985-.738-1.722-1.965-1.964h-3.688c-.985 0-1.722.737-1.964 1.964v5.653c-7.375.985-12.048 5.9-12.048 12.047 0 8.113 4.915 11.31 15.24 12.538 6.885 1.227 9.097 2.702 9.097 6.637 0 3.936-3.44 6.638-8.112 6.638-6.39 0-8.602-2.702-9.34-6.39-.248-.985-.985-1.475-1.723-1.475h-4.177c-.985 0-1.723.738-1.723 1.723v.248c.986 6.148 4.915 10.573 13.028 11.8v5.9c0 .985.737 1.723 1.964 1.964h3.688c.985 0 1.723-.737 1.965-1.964v-5.9c7.369-1.233 12.29-6.396 12.29-13.033z" fill="#fff"/><path d="M60.463 108.152c-19.175-6.885-29.01-28.273-21.878-47.2 3.688-10.325 11.8-18.19 21.878-21.877.985-.49 1.474-1.227 1.474-2.46v-3.44c0-.985-.49-1.723-1.474-1.965-.248 0-.738 0-.986.248-23.352 7.375-36.137 32.202-28.762 55.56 4.425 13.765 14.998 24.338 28.762 28.763.986.49 1.965 0 2.213-.985.248-.248.248-.49.248-.986v-3.439c0-.744-.738-1.723-1.475-2.219zm26.054-76.7c-.985-.49-1.965 0-2.213.985-.247.248-.247.49-.247.986v3.44c0 .985.737 1.964 1.475 2.46 19.175 6.885 29.01 28.273 21.877 47.2-3.688 10.325-11.8 18.19-21.877 21.877-.986.49-1.475 1.227-1.475 2.46v3.44c0 .985.49 1.723 1.475 1.965.247 0 .737 0 .985-.248 23.352-7.375 36.137-32.202 28.762-55.56-4.425-14.007-15.239-24.58-28.762-29.005z" fill="#fff"/><defs><linearGradient id="prefix__paint0_linear_110_604" x1="53.474" y1="122.79" x2="14.036" y2="89.579" gradientUnits="userSpaceOnUse"><stop offset=".21" stop-color="#ED1E79"/><stop offset="1" stop-color="#522785"/></linearGradient><linearGradient id="prefix__paint1_linear_110_604" x1="120.65" y1="55.602" x2="81.213" y2="22.391" gradientUnits="userSpaceOnUse"><stop offset=".21" stop-color="#F15A24"/><stop offset=".684" stop-color="#FBB03B"/></linearGradient></defs></svg>