<svg width="360" height="360" fill="none" xmlns="http://www.w3.org/2000/svg"><g clip-path="url(#prefix__clip0_876_71)"><path d="M180 0c99.4 0 180 80.6 180 180s-80.6 180-180 180S0 279.4 0 180 80.6 0 180 0z" fill="#3B00B9"/><path fill-rule="evenodd" clip-rule="evenodd" d="M40.4 190.402c5 69 60.2 124.2 129.2 129.2v15.6c-77.6-5.2-139.6-67.2-144.8-144.8h15.6z" fill="url(#prefix__paint0_linear_876_71)"/><path fill-rule="evenodd" clip-rule="evenodd" d="M169.6 40.4c-69 5-124.2 60.201-129.2 129.201H24.8c5-77.6 67.2-139.8 144.8-144.8v15.6z" fill="#29ABE2"/><path fill-rule="evenodd" clip-rule="evenodd" d="M319.6 169.402c-5-69-60.2-124.2-129.2-129.2v-15.6c77.6 5.2 139.8 67.2 144.8 144.8h-15.6z" fill="url(#prefix__paint1_linear_876_71)"/><path fill-rule="evenodd" clip-rule="evenodd" d="M190.4 319.602c69-5 124.2-60.2 129.2-129.2h15.6c-5 77.6-67.2 139.6-144.8 144.8v-15.6z" fill="#29ABE2"/><path fill-rule="evenodd" clip-rule="evenodd" d="M195.801 185.407c-.887.067-5.467.341-15.682.341-8.126 0-13.895-.244-15.919-.341-31.401-1.384-54.839-6.862-54.839-13.42 0-6.559 23.438-12.029 54.839-13.436v21.401c2.054.148 7.933.496 16.059.496 9.75 0 14.633-.407 15.512-.489v-21.393c31.334 1.399 54.721 6.877 54.721 13.421s-23.379 12.021-54.721 13.413l.03.007zm0-29.054v-19.15h43.729V108H120.471v29.203h43.722v19.142c-35.538 1.636-62.263 8.691-62.263 17.145 0 8.453 26.725 15.5 62.263 17.144V252h31.6v-61.389c35.456-1.636 62.137-8.683 62.137-17.129 0-8.446-26.658-15.493-62.137-17.137l.008.008z" fill="#fff"/></g><defs><linearGradient id="prefix__paint0_linear_876_71" x1="130.72" y1="304.122" x2="33.48" y2="222.222" gradientUnits="userSpaceOnUse"><stop offset=".21" stop-color="#ED1E79"/><stop offset="1" stop-color="#522785"/></linearGradient><linearGradient id="prefix__paint1_linear_876_71" x1="309.32" y1="123.062" x2="212.08" y2="41.161" gradientUnits="userSpaceOnUse"><stop offset=".21" stop-color="#F15A24"/><stop offset=".68" stop-color="#FBB03B"/></linearGradient><clipPath id="prefix__clip0_876_71"><path fill="#fff" d="M0 0h360v360H0z"/></clipPath></defs></svg>