<svg width="80" height="80" fill="none" xmlns="http://www.w3.org/2000/svg"><g clip-path="url(#prefix__clip0_2776_3801)"><rect width="80" height="80" rx="40" fill="#00A3FF"/><path opacity=".6" d="M54.767 35.944l.403.618c4.546 6.973 3.53 16.106-2.44 21.957-3.514 3.442-8.118 5.163-12.722 5.164l14.76-27.74z" fill="#fff"/><path opacity=".2" d="M40.006 44.374l14.76-8.43-14.76 27.739V44.374z" fill="#fff"/><path d="M25.233 35.944l-.403.618c-4.546 6.973-3.53 16.106 2.44 21.957 3.514 3.442 8.118 5.163 12.722 5.164l-14.76-27.74z" fill="#fff"/><path opacity=".6" d="M39.988 44.374l-14.76-8.43 14.76 27.739V44.374z" fill="#fff"/><path opacity=".2" d="M40.012 25.54v14.541l12.713-7.266-12.713-7.274z" fill="#fff"/><path opacity=".6" d="M40.008 25.54l-12.723 7.275 12.723 7.266v-14.54z" fill="#fff"/><path d="M40.008 13.312L27.285 32.82l12.723-7.295V13.312z" fill="#fff"/><path opacity=".6" d="M40.012 25.523l12.723 7.295L40.012 13.3v12.223z" fill="#fff"/></g><defs><clipPath id="prefix__clip0_2776_3801"><rect width="80" height="80" rx="40" fill="#fff"/></clipPath></defs></svg>