<svg width="360" height="360" fill="none" xmlns="http://www.w3.org/2000/svg"><g clip-path="url(#prefix__clip0_980_131)"><path d="M180 0c99.4 0 180 80.6 180 180s-80.6 180-180 180S0 279.4 0 180 80.6 0 180 0z" fill="#3B00B9"/><path fill-rule="evenodd" clip-rule="evenodd" d="M40.4 190.402c5 69 60.2 124.2 129.2 129.2v15.6c-77.6-5.2-139.6-67.2-144.8-144.8h15.6z" fill="url(#prefix__paint0_linear_980_131)"/><path fill-rule="evenodd" clip-rule="evenodd" d="M169.6 40.4c-69 5-124.2 60.201-129.2 129.201H24.8c5-77.6 67.2-139.8 144.8-144.8v15.6z" fill="#29ABE2"/><path fill-rule="evenodd" clip-rule="evenodd" d="M319.6 169.402c-5-69-60.2-124.2-129.2-129.2v-15.6c77.6 5.2 139.8 67.2 144.8 144.8h-15.6z" fill="url(#prefix__paint1_linear_980_131)"/><path fill-rule="evenodd" clip-rule="evenodd" d="M190.4 319.602c69-5 124.2-60.2 129.2-129.2h15.6c-5 77.6-67.2 139.6-144.8 144.8v-15.6z" fill="#29ABE2"/><path fill-rule="evenodd" clip-rule="evenodd" d="M180.19 191.079c26.656 0 48.933-4.507 54.378-10.529-4.623-5.107-21.344-9.129-42.579-10.23v12.722a227.63 227.63 0 01-11.803.294c-4.049 0-8.002-.096-11.811-.294V170.32c-21.227 1.101-37.956 5.123-42.578 10.23 5.452 6.022 27.733 10.529 54.389 10.529h.004zm47.36-59.881v17.519h-35.561v12.148c24.979 1.298 43.722 6.638 43.861 13.028v13.322c-.139 6.39-18.882 11.718-43.861 13.02v29.815h-23.61v-29.815c-24.978-1.298-43.714-6.63-43.853-13.02v-13.322c.139-6.39 18.875-11.73 43.853-13.028v-12.148h-35.561v-17.519h94.736-.004zm-108.717-27.88H243.67c2.984 0 5.731 1.569 7.219 4.119l36.367 62.449a8.154 8.154 0 01-1.364 9.951l-100.107 97.72c-3.247 3.166-8.463 3.166-11.702 0L74.1 179.969a8.15 8.15 0 01-1.24-10.149l38.878-62.577a8.364 8.364 0 017.099-3.922l-.004-.003z" fill="url(#prefix__paint2_linear_980_131)"/></g><defs><linearGradient id="prefix__paint0_linear_980_131" x1="130.72" y1="304.122" x2="33.48" y2="222.222" gradientUnits="userSpaceOnUse"><stop offset=".21" stop-color="#ED1E79"/><stop offset="1" stop-color="#522785"/></linearGradient><linearGradient id="prefix__paint1_linear_980_131" x1="309.32" y1="123.062" x2="212.08" y2="41.161" gradientUnits="userSpaceOnUse"><stop offset=".21" stop-color="#F15A24"/><stop offset=".68" stop-color="#FBB03B"/></linearGradient><linearGradient id="prefix__paint2_linear_980_131" x1="323" y1="339.5" x2="217.369" y2="155.542" gradientUnits="userSpaceOnUse"><stop stop-color="#F15A24"/><stop offset="1" stop-color="#FBB03B"/></linearGradient><clipPath id="prefix__clip0_980_131"><path fill="#fff" d="M0 0h360v360H0z"/></clipPath></defs></svg>