<svg width="100" height="100" viewBox="0 0 100 100" fill="none" xmlns="http://www.w3.org/2000/svg">
<rect width="100" height="100" fill="#131933"/>
<path d="M27.0841 35.2159C30.6993 25.4604 41.7708 23.4026 47.043 26.0701V34.8348C43.2772 30.2619 31.6031 33.3105 33.8626 43.5995C37.4778 51.5258 44.1559 49.6967 47.043 47.7913V56.1749C34.2392 60.7478 22.2827 48.1724 27.0841 35.2159Z" fill="url(#paint0_linear_333_7)"/>
<path d="M47.7962 71.4179V35.978C51.1101 38.1121 53.696 40.932 54.5747 42.0752V74.8475C51.2607 74.2378 48.6749 72.307 47.7962 71.4179Z" fill="url(#paint1_linear_333_7)"/>
<path d="M55.3278 51.221V43.2184C56.9597 42.8374 61.1272 42.5325 64.7424 44.3617C69.2614 46.267 77.1697 53.8885 72.6507 65.3207C69.0355 74.4664 59.5958 75.4826 55.3278 74.8475V66.845C57.9639 68.3693 68.1317 66.0828 66.2488 57.3181C64.7424 50.3064 58.3405 50.3318 55.3278 51.221Z" fill="url(#paint2_linear_333_7)"/>
<path d="M47.7962 35.2159V26.4512C50.8088 27.3658 53.5705 30.389 54.5747 31.7862V41.3131C54.5747 41.0082 51.1854 37.5023 47.7962 35.2159Z" fill="white"/>
<defs>
<linearGradient id="paint0_linear_333_7" x1="35.3689" y1="26.8323" x2="61.4498" y2="74.5891" gradientUnits="userSpaceOnUse">
<stop stop-color="#C9C4FF"/>
<stop offset="1" stop-color="#6D63EC"/>
</linearGradient>
<linearGradient id="paint1_linear_333_7" x1="35.3689" y1="26.8323" x2="61.4498" y2="74.5891" gradientUnits="userSpaceOnUse">
<stop stop-color="#C9C4FF"/>
<stop offset="1" stop-color="#6D63EC"/>
</linearGradient>
<linearGradient id="paint2_linear_333_7" x1="35.3689" y1="26.8323" x2="61.4498" y2="74.5891" gradientUnits="userSpaceOnUse">
<stop stop-color="#C9C4FF"/>
<stop offset="1" stop-color="#6D63EC"/>
</linearGradient>
</defs>
</svg>
