<svg width="16" height="16" viewBox="0 0 16 16" fill="none" xmlns="http://www.w3.org/2000/svg">
<path d="M8.76904 9.39456C8.71689 9.96361 8.35514 10.2296 7.99802 10.2296C7.65872 10.1656 7.39533 10.021 7.27981 9.44539L6.8131 4.06519C6.8131 3.52453 7.47058 3.04592 8.02838 3.04592C8.58619 3.04592 9.1869 3.54631 9.1869 4.08631L8.76904 9.39456ZM8 10.9334C7.4422 10.9334 6.98936 11.3856 6.98936 11.9441C6.98936 12.5025 7.44154 12.9554 8 12.9554C8.55846 12.9554 9.01064 12.5025 9.01064 11.9441C9.01064 11.3862 8.55846 10.9334 8 10.9334ZM16 8.00033C16 12.4187 12.4188 16 7.99934 16C3.58181 16 0 12.4187 0 8.00033C0 3.58196 3.58181 0 7.99934 0C12.4182 0 16 3.58196 16 8.00033ZM14.5187 8.00033C14.5187 4.39988 11.6003 1.48203 8 1.48203C4.3997 1.48203 1.48197 4.39988 1.48197 8.00033C1.48197 11.6001 4.3997 14.5186 8 14.5186C11.6003 14.5186 14.5187 11.6001 14.5187 8.00033Z" fill="#FFCF13"/>
</svg>
