<svg width="100" height="129" viewBox="0 0 100 129" fill="none" xmlns="http://www.w3.org/2000/svg">
<path fill-rule="evenodd" clip-rule="evenodd" d="M49.6142 0C51.6882 10.8886 42.6662 23.1252 16.9485 43.0358C4.15876 53.233 -13.7469 78.294 16.9485 96.9601C41 108 49.0957 121.33 48.0587 128.589C48.1164 128.517 48.1743 128.444 48.2325 128.372C52.362 123.215 57.759 116.476 47.0217 103.182C44.9989 100.678 42.5286 98.2447 40.0365 95.7903C29.1143 85.0332 17.7727 73.8629 41.8367 54.4428C71.3914 30.5917 65.6877 14.5181 49.6142 0ZM73.984 41.4803C76.5765 45.8011 72.1173 53.9243 52.2068 72.5905C49.2578 75.355 47.1839 79.8495 56.8733 88.664C56.8733 88.664 73.1197 76.0471 76.5764 65.8499C85.9096 79.331 88.1455 82.9605 66.3684 100.071C67.9239 104.219 75.021 110.96 77.095 112.515C78.3394 113.449 129.982 75.7015 73.984 41.4803Z" fill="url(#paint0_linear_439_12)"/>
<defs>
<linearGradient id="paint0_linear_439_12" x1="75.3567" y1="41.4803" x2="75.3567" y2="112.532" gradientUnits="userSpaceOnUse">
<stop offset="0.0408264" stop-color="#FFD013"/>
<stop offset="1" stop-color="#C07906"/>
</linearGradient>
</defs>
</svg>
