<svg width="164" height="52" viewBox="0 0 164 52" fill="none" xmlns="http://www.w3.org/2000/svg">
<path d="M140.712 11.5387H162.797V16.8011H147.259V23.3481H161.223V28.6105H147.259V35.2818H163.253V40.5442H140.712V11.5387Z" fill="url(#paint0_linear_464_81)"/>
<path d="M132.602 19.4116C131.58 18.7762 130.516 18.2514 129.411 17.837C128.334 17.395 127.284 17.0635 126.262 16.8425C125.268 16.5939 124.37 16.4696 123.569 16.4696C122.464 16.4696 121.566 16.6906 120.875 17.1326C120.212 17.547 119.881 18.1823 119.881 19.0387C119.881 19.8398 120.157 20.5028 120.71 21.0276C121.29 21.5249 122.035 21.9392 122.947 22.2707C123.859 22.5746 124.867 22.8923 125.972 23.2237C127.077 23.5276 128.168 23.8867 129.245 24.3011C130.35 24.7155 131.359 25.2541 132.27 25.9171C133.21 26.5525 133.942 27.3812 134.466 28.4033C135.019 29.3978 135.295 30.6409 135.295 32.1326C135.295 34.011 134.798 35.5994 133.803 36.8978C132.809 38.1961 131.442 39.1906 129.701 39.8812C127.989 40.5718 126.069 40.9171 123.942 40.9171C122.339 40.9171 120.765 40.7237 119.218 40.337C117.671 39.9503 116.207 39.4116 114.826 38.721C113.472 38.0027 112.243 37.174 111.138 36.2348L113.748 31.0967C114.743 31.9807 115.834 32.7541 117.022 33.4171C118.237 34.0801 119.453 34.5911 120.668 34.9503C121.884 35.3094 123.002 35.4889 124.024 35.4889C125.378 35.4889 126.428 35.2265 127.174 34.7016C127.947 34.1768 128.334 33.4309 128.334 32.4641C128.334 31.6353 128.058 30.9724 127.505 30.4751C126.953 29.9779 126.221 29.5635 125.309 29.232C124.397 28.8729 123.389 28.5552 122.284 28.279C121.179 27.9751 120.074 27.6298 118.969 27.2431C117.864 26.8287 116.856 26.3177 115.944 25.7099C115.033 25.0746 114.287 24.2735 113.707 23.3066C113.154 22.3398 112.878 21.1105 112.878 19.6188C112.878 17.8508 113.348 16.3315 114.287 15.0608C115.226 13.7624 116.538 12.768 118.223 12.0773C119.908 11.3591 121.87 11 124.107 11C126.152 11 128.14 11.3039 130.074 11.9116C132.008 12.4917 133.693 13.2514 135.129 14.1906L132.602 19.4116Z" fill="url(#paint1_linear_464_81)"/>
<path d="M87.5218 28.6105C87.5218 30.7376 88.1157 32.4227 89.3036 33.6658C90.4914 34.8812 92.0522 35.489 93.9859 35.489C95.8643 35.489 97.3699 34.8812 98.5025 33.6658C99.6627 32.4227 100.243 30.7376 100.243 28.6105V11.5387H106.79V28.6105C106.79 31.1243 106.265 33.3204 105.215 35.1989C104.193 37.0497 102.715 38.4862 100.781 39.5083C98.8754 40.5028 96.5964 41 93.9445 41C91.2925 41 88.9859 40.5028 87.0246 39.5083C85.0909 38.4862 83.5992 37.0497 82.5494 35.1989C81.4997 33.3204 80.9749 31.1243 80.9749 28.6105V11.5387H87.5218V28.6105Z" fill="url(#paint2_linear_464_81)"/>
<path d="M56 11.5387H76.8425V16.8011H62.547V24.1354H75.6409V29.3978H62.547V40.5442H56V11.5387Z" fill="url(#paint3_linear_464_81)"/>
<path fill-rule="evenodd" clip-rule="evenodd" d="M20.0634 0C20.9022 4.40323 17.2538 9.35161 6.85379 17.4032C1.68176 21.5269 -5.55909 31.6613 6.85379 39.2097C16.58 43.6741 19.8538 49.0645 19.4344 52C19.4577 51.9709 19.4812 51.9416 19.5047 51.9122C21.1746 49.827 23.3571 47.1017 19.0151 41.7258C18.1971 40.713 17.1981 39.7292 16.1903 38.7366C11.7735 34.3866 7.18708 29.8694 16.9183 22.0161C28.8699 12.371 26.5634 5.87097 20.0634 0ZM29.9183 16.7742C30.9667 18.5215 29.1634 21.8064 21.1119 29.3548C19.9193 30.4728 19.0807 32.2903 22.9989 35.8548C22.9989 35.8548 29.5688 30.7527 30.9667 26.629C34.7409 32.0806 35.6451 33.5484 26.8387 40.4677C27.4677 42.1451 30.3377 44.871 31.1764 45.5C31.6796 45.8774 52.5634 30.6129 29.9183 16.7742Z" fill="url(#paint4_linear_464_81)"/>
<defs>
<linearGradient id="paint0_linear_464_81" x1="109.004" y1="11.8574" x2="109.004" y2="40.5442" gradientUnits="userSpaceOnUse">
<stop stop-color="#333333"/>
<stop offset="1" stop-color="#0A0600"/>
</linearGradient>
<linearGradient id="paint1_linear_464_81" x1="109.004" y1="11.8574" x2="109.004" y2="40.5442" gradientUnits="userSpaceOnUse">
<stop stop-color="#333333"/>
<stop offset="1" stop-color="#0A0600"/>
</linearGradient>
<linearGradient id="paint2_linear_464_81" x1="109.004" y1="11.8574" x2="109.004" y2="40.5442" gradientUnits="userSpaceOnUse">
<stop stop-color="#333333"/>
<stop offset="1" stop-color="#0A0600"/>
</linearGradient>
<linearGradient id="paint3_linear_464_81" x1="109.004" y1="11.8574" x2="109.004" y2="40.5442" gradientUnits="userSpaceOnUse">
<stop stop-color="#333333"/>
<stop offset="1" stop-color="#0A0600"/>
</linearGradient>
<linearGradient id="paint4_linear_464_81" x1="30.4735" y1="16.7742" x2="30.4735" y2="45.5068" gradientUnits="userSpaceOnUse">
<stop stop-color="#333333"/>
<stop offset="1" stop-color="#0A0600"/>
</linearGradient>
</defs>
</svg>
