<svg width="80" height="65" viewBox="0 0 80 65" fill="none" xmlns="http://www.w3.org/2000/svg">
<path fill-rule="evenodd" clip-rule="evenodd" d="M7.03762 0C10.9243 0 14.0752 3.15138 14.0752 7.03878V41.2702C14.0752 46.4534 18.2763 50.6553 23.4586 50.6553C28.641 50.6553 32.8421 46.4534 32.8421 41.2702V28.2221C32.8421 24.3347 35.9929 21.1833 39.8797 21.1833C39.9199 21.1833 39.96 21.1836 40 21.1842C40.04 21.1836 40.0801 21.1833 40.1203 21.1833C44.0073 21.1833 47.1579 24.3347 47.1579 28.2221V41.2702C47.1579 46.4534 51.3588 50.6553 56.5411 50.6553C61.724 50.6553 65.9249 46.4534 65.9249 41.2702V7.03878C65.9249 3.15138 69.0754 0 72.9624 0C76.8495 0 80 3.15138 80 7.03878V41.2702C80 54.2283 69.4974 64.7328 56.5411 64.7328C50.0867 64.7328 44.2412 62.1258 40 57.9071C35.7585 62.1258 29.913 64.7328 23.4586 64.7328C10.5028 64.7328 0 54.2283 0 41.2702V7.03878C0 3.15138 3.15084 0 7.03762 0ZM40 14.7394C44.0531 14.7394 47.3386 11.4533 47.3386 7.39976C47.3386 3.34621 44.0531 0.0601606 40 0.0601606C35.9471 0.0601606 32.6617 3.34621 32.6617 7.39976C32.6617 11.4533 35.9471 14.7394 40 14.7394Z" fill="url(#paint0_linear_17_39)"/>
<defs>
<linearGradient id="paint0_linear_17_39" x1="40" y1="0" x2="40" y2="64.7328" gradientUnits="userSpaceOnUse">
<stop offset="0.0408264" stop-color="#FFD013"/>
<stop offset="1" stop-color="#C07906"/>
</linearGradient>
</defs>
</svg>
