<svg xmlns="http://www.w3.org/2000/svg" width="16" height="16" viewBox="0 0 16 16" fill="none">
<path d="M8 0C10.1217 0 12.1566 0.842855 13.6569 2.34315C15.1571 3.84344 16 5.87827 16 8C16 10.1217 15.1571 12.1566 13.6569 13.6569C12.1566 15.1571 10.1217 16 8 16C5.87827 16 3.84344 15.1571 2.34315 13.6569C0.842855 12.1566 0 10.1217 0 8C0 5.87827 0.842855 3.84344 2.34315 2.34315C3.84344 0.842855 5.87827 0 8 0ZM5.172 4.464C5.07811 4.37011 4.95078 4.31737 4.818 4.31737C4.68523 4.31737 4.55789 4.37011 4.464 4.464C4.37011 4.55789 4.31737 4.68523 4.31737 4.818C4.31737 4.95078 4.37011 5.07811 4.464 5.172L7.293 8L4.464 10.828C4.41751 10.8745 4.38064 10.9297 4.35548 10.9904C4.33032 11.0512 4.31737 11.1163 4.31737 11.182C4.31737 11.2477 4.33032 11.3128 4.35548 11.3736C4.38064 11.4343 4.41751 11.4895 4.464 11.536C4.55789 11.6299 4.68523 11.6826 4.818 11.6826C4.88374 11.6826 4.94884 11.6697 5.00958 11.6445C5.07032 11.6194 5.12551 11.5825 5.172 11.536L8 8.707L10.828 11.536C10.8745 11.5825 10.9297 11.6194 10.9904 11.6445C11.0512 11.6697 11.1163 11.6826 11.182 11.6826C11.2477 11.6826 11.3128 11.6697 11.3736 11.6445C11.4343 11.6194 11.4895 11.5825 11.536 11.536C11.5825 11.4895 11.6194 11.4343 11.6445 11.3736C11.6697 11.3128 11.6826 11.2477 11.6826 11.182C11.6826 11.1163 11.6697 11.0512 11.6445 10.9904C11.6194 10.9297 11.5825 10.8745 11.536 10.828L8.707 8L11.536 5.172C11.5825 5.12551 11.6194 5.07032 11.6445 5.00958C11.6697 4.94884 11.6826 4.88374 11.6826 4.818C11.6826 4.75226 11.6697 4.68716 11.6445 4.62642C11.6194 4.56568 11.5825 4.51049 11.536 4.464C11.4895 4.41751 11.4343 4.38064 11.3736 4.35548C11.3128 4.33032 11.2477 4.31737 11.182 4.31737C11.1163 4.31737 11.0512 4.33032 10.9904 4.35548C10.9297 4.38064 10.8745 4.41751 10.828 4.464L8 7.293L5.172 4.464Z" fill="#FF2C40"/>
</svg>
