<svg xmlns="http://www.w3.org/2000/svg" width="16" height="16" viewBox="0 0 16 16" fill="none">
<path fill-rule="evenodd" clip-rule="evenodd" d="M2.34315 13.6569C0.842855 12.1566 0 10.1217 0 8C0 5.87827 0.842855 3.84344 2.34315 2.34315C3.84344 0.842855 5.87827 0 8 0C10.1217 0 12.1566 0.842855 13.6569 2.34315C15.1571 3.84344 16 5.87827 16 8C16 10.1217 15.1571 12.1566 13.6569 13.6569C12.1566 15.1571 10.1217 16 8 16C5.87827 16 3.84344 15.1571 2.34315 13.6569ZM6.78725 10.8286C6.89439 10.9357 7.03903 10.9964 7.19082 10.9964C7.34261 10.9964 7.48725 10.9357 7.59439 10.8286L12.448 5.97858C12.6712 5.75536 12.6712 5.39286 12.448 5.16965C12.2247 4.94643 11.8622 4.94643 11.639 5.16965L7.19261 9.61608L4.36403 6.78572C4.14082 6.56251 3.77832 6.56251 3.55511 6.78572C3.33189 7.00893 3.33189 7.37143 3.55511 7.59465L6.78725 10.8286Z" fill="#07C160"/>
</svg>
