<svg width="18" height="15" viewBox="0 0 18 15" fill="none" xmlns="http://www.w3.org/2000/svg">
<path d="M0.207027 3.31248C-0.222234 0.888672 0.883438 0.888672 1.72028 0.888672H15.6951V3.05666" fill="#FFB013"/>
<path d="M16.9439 11.4337V13.9746C16.9439 14.1839 16.8607 14.3846 16.7127 14.5326C16.5647 14.6806 16.364 14.7638 16.1547 14.7638H0.900782C0.691839 14.7626 0.491777 14.6791 0.34403 14.5314C0.196282 14.3836 0.112775 14.1836 0.111636 13.9746V3.44689C0.111636 3.2376 0.194778 3.03688 0.342772 2.88888C0.490765 2.74089 0.691488 2.65775 0.900782 2.65775H16.1547C16.2585 2.65717 16.3614 2.67719 16.4574 2.71665C16.5534 2.7561 16.6406 2.81421 16.714 2.8876C16.7874 2.96099 16.8455 3.04822 16.885 3.14422C16.9244 3.24022 16.9444 3.3431 16.9439 3.44689V5.98777" fill="#FF7826"/>
<path d="M12.4648 6.09183C11.7173 6.09183 11.0005 6.38877 10.4719 6.91732C9.94337 7.44587 9.64643 8.16273 9.64643 8.91021C9.64643 9.65769 9.94337 10.3746 10.4719 10.9031C11.0005 11.4317 11.7173 11.7286 12.4648 11.7286H17.8891V6.09183H12.4648Z" fill="#FFB013"/>
<path d="M11.3852 8.73244C11.3852 8.85144 11.4086 8.96929 11.4541 9.07923C11.4997 9.18918 11.5664 9.28908 11.6506 9.37323C11.7347 9.45738 11.8346 9.52413 11.9446 9.56967C12.0545 9.61522 12.1724 9.63866 12.2914 9.63866C12.4104 9.63866 12.5282 9.61522 12.6382 9.56967C12.7481 9.52413 12.848 9.45738 12.9322 9.37323C13.0163 9.28908 13.0831 9.18918 13.1286 9.07923C13.1741 8.96929 13.1976 8.85144 13.1976 8.73244C13.1976 8.61343 13.1741 8.49559 13.1286 8.38564C13.0831 8.2757 13.0163 8.1758 12.9322 8.09165C12.848 8.0075 12.7481 7.94074 12.6382 7.8952C12.5282 7.84966 12.4104 7.82622 12.2914 7.82622C12.1724 7.82622 12.0545 7.84966 11.9446 7.8952C11.8346 7.94074 11.7347 8.0075 11.6506 8.09165C11.5664 8.1758 11.4997 8.2757 11.4541 8.38564C11.4086 8.49559 11.3852 8.61343 11.3852 8.73244Z" fill="white"/>
</svg>
